<?xml version="1.0" encoding="UTF-8" standalone="no"?>
<!-- Created with Inkscape (http://www.inkscape.org/) -->
<svg
   xmlns:dc="http://purl.org/dc/elements/1.1/"
   xmlns:cc="http://creativecommons.org/ns#"
   xmlns:rdf="http://www.w3.org/1999/02/22-rdf-syntax-ns#"
   xmlns:svg="http://www.w3.org/2000/svg"
   xmlns="http://www.w3.org/2000/svg"
   xmlns:xlink="http://www.w3.org/1999/xlink"
   xmlns:sodipodi="http://sodipodi.sourceforge.net/DTD/sodipodi-0.dtd"
   xmlns:inkscape="http://www.inkscape.org/namespaces/inkscape"
   width="744.09448819"
   height="1052.3622047"
   id="svg2"
   sodipodi:version="0.32"
   inkscape:version="0.46"
   sodipodi:docname="drawing.svg"
   inkscape:output_extension="org.inkscape.output.svg.inkscape">
  <defs
     id="defs4">
    <linearGradient
       id="linearGradient3646">
      <stop
         style="stop-color:#adc3f4;stop-opacity:1;"
         offset="0"
         id="stop3648" />
      <stop
         style="stop-color:#0b3690;stop-opacity:1;"
         offset="1"
         id="stop3650" />
    </linearGradient>
    <linearGradient
       id="linearGradient3617">
      <stop
         id="stop3619"
         offset="0"
         style="stop-color:#51534d;stop-opacity:1;" />
      <stop
         style="stop-color:#000000;stop-opacity:1;"
         offset="0.70833331"
         id="stop3621" />
      <stop
         id="stop3623"
         offset="1"
         style="stop-color:#cfcfcf;stop-opacity:1;" />
    </linearGradient>
    <linearGradient
       id="linearGradient3599">
      <stop
         style="stop-color:#8ddc11;stop-opacity:1;"
         offset="0"
         id="stop3601" />
      <stop
         id="stop3607"
         offset="0.70833331"
         style="stop-color:#60a40b;stop-opacity:1;" />
      <stop
         style="stop-color:#bee27b;stop-opacity:1;"
         offset="1"
         id="stop3603" />
    </linearGradient>
    <radialGradient
       cx="76.764198"
       cy="58.0625"
       r="66.164497"
       id="XMLID_27_"
       gradientUnits="userSpaceOnUse"
       gradientTransform="matrix(0.9397, 0, 0, 0.9397, 4.2153, 4.1331)">
      <stop
         style="stop-color: rgb(255, 255, 255); stop-opacity: 1;"
         offset="0"
         id="stop107" />
      <stop
         style="stop-color: rgb(253, 253, 252); stop-opacity: 1;"
         offset="0.32780001"
         id="stop109" />
      <stop
         style="stop-color: rgb(244, 245, 244); stop-opacity: 1;"
         offset="0.6773591"
         id="stop111" />
      <stop
         style="stop-color: rgb(202, 207, 208); stop-opacity: 1;"
         offset="1"
         id="stop113" />
    </radialGradient>
    <inkscape:perspective
       sodipodi:type="inkscape:persp3d"
       inkscape:vp_x="0 : 526.18109 : 1"
       inkscape:vp_y="0 : 1000 : 0"
       inkscape:vp_z="744.09448 : 526.18109 : 1"
       inkscape:persp3d-origin="372.04724 : 350.78739 : 1"
       id="perspective10" />
    <linearGradient
       inkscape:collect="always"
       xlink:href="#linearGradient3599"
       id="linearGradient3605"
       x1="-183.14757"
       y1="1252.1713"
       x2="-133.11467"
       y2="1252.1713"
       gradientUnits="userSpaceOnUse" />
    <linearGradient
       inkscape:collect="always"
       xlink:href="#linearGradient3599"
       id="linearGradient3611"
       gradientUnits="userSpaceOnUse"
       x1="-183.14757"
       y1="1252.1713"
       x2="-133.11467"
       y2="1252.1713" />
    <linearGradient
       inkscape:collect="always"
       xlink:href="#linearGradient3617"
       id="linearGradient3615"
       gradientUnits="userSpaceOnUse"
       x1="-183.14757"
       y1="1252.1713"
       x2="-133.11467"
       y2="1252.1713" />
    <linearGradient
       inkscape:collect="always"
       xlink:href="#linearGradient3599"
       id="linearGradient3632"
       gradientUnits="userSpaceOnUse"
       x1="-183.14757"
       y1="1252.1713"
       x2="-133.11467"
       y2="1252.1713" />
    <linearGradient
       inkscape:collect="always"
       xlink:href="#linearGradient3617"
       id="linearGradient3634"
       gradientUnits="userSpaceOnUse"
       x1="-183.14757"
       y1="1252.1713"
       x2="-133.11467"
       y2="1252.1713" />
    <linearGradient
       inkscape:collect="always"
       xlink:href="#linearGradient3599"
       id="linearGradient3636"
       gradientUnits="userSpaceOnUse"
       x1="-183.14757"
       y1="1252.1713"
       x2="-133.11467"
       y2="1252.1713" />
    <radialGradient
       inkscape:collect="always"
       xlink:href="#linearGradient3646"
       id="radialGradient3652"
       cx="99.431911"
       cy="1192.3448"
       fx="99.431911"
       fy="1192.3448"
       r="122.5728"
       gradientTransform="matrix(0.2425236,0,0,0.2432565,47.694958,732.50126)"
       gradientUnits="userSpaceOnUse" />
    <radialGradient
       inkscape:collect="always"
       xlink:href="#linearGradient3646"
       id="radialGradient3665"
       gradientUnits="userSpaceOnUse"
       gradientTransform="matrix(0.2425236,0,0,0.2432565,47.694958,732.50126)"
       cx="99.431911"
       cy="1192.3448"
       fx="99.431911"
       fy="1192.3448"
       r="122.5728" />
    <linearGradient
       inkscape:collect="always"
       xlink:href="#linearGradient3599"
       id="linearGradient3667"
       gradientUnits="userSpaceOnUse"
       x1="-183.14757"
       y1="1252.1713"
       x2="-133.11467"
       y2="1252.1713" />
    <linearGradient
       inkscape:collect="always"
       xlink:href="#linearGradient3617"
       id="linearGradient3669"
       gradientUnits="userSpaceOnUse"
       x1="-183.14757"
       y1="1252.1713"
       x2="-133.11467"
       y2="1252.1713" />
    <linearGradient
       inkscape:collect="always"
       xlink:href="#linearGradient3599"
       id="linearGradient3671"
       gradientUnits="userSpaceOnUse"
       x1="-183.14757"
       y1="1252.1713"
       x2="-133.11467"
       y2="1252.1713" />
    <radialGradient
       inkscape:collect="always"
       xlink:href="#linearGradient3646"
       id="radialGradient3682"
       gradientUnits="userSpaceOnUse"
       gradientTransform="matrix(0.2602428,0,0,0.2610293,0.9454403,709.13116)"
       cx="99.431911"
       cy="1192.3448"
       fx="99.431911"
       fy="1192.3448"
       r="122.5728" />
    <linearGradient
       inkscape:collect="always"
       xlink:href="#linearGradient3599"
       id="linearGradient3690"
       gradientUnits="userSpaceOnUse"
       x1="-183.14757"
       y1="1252.1713"
       x2="-133.11467"
       y2="1252.1713" />
    <linearGradient
       inkscape:collect="always"
       xlink:href="#linearGradient3617"
       id="linearGradient3692"
       gradientUnits="userSpaceOnUse"
       x1="-183.14757"
       y1="1252.1713"
       x2="-133.11467"
       y2="1252.1713" />
    <linearGradient
       inkscape:collect="always"
       xlink:href="#linearGradient3599"
       id="linearGradient3694"
       gradientUnits="userSpaceOnUse"
       x1="-183.14757"
       y1="1252.1713"
       x2="-133.11467"
       y2="1252.1713" />
  </defs>
  <sodipodi:namedview
     id="base"
     pagecolor="#ffffff"
     bordercolor="#666666"
     borderopacity="1.0"
     gridtolerance="10000"
     guidetolerance="10"
     objecttolerance="10"
     inkscape:pageopacity="0.0"
     inkscape:pageshadow="2"
     inkscape:zoom="3.9349037"
     inkscape:cx="38.12091"
     inkscape:cy="13.754968"
     inkscape:document-units="px"
     inkscape:current-layer="layer1"
     showgrid="false"
     showborder="false"
     showguides="true"
     inkscape:guide-bbox="true"
     inkscape:window-width="1280"
     inkscape:window-height="938"
     inkscape:window-x="-4"
     inkscape:window-y="-4" />
  <metadata
     id="metadata7">
    <rdf:RDF>
      <cc:Work
         rdf:about="">
        <dc:format>image/svg+xml</dc:format>
        <dc:type
           rdf:resource="http://purl.org/dc/dcmitype/StillImage" />
      </cc:Work>
    </rdf:RDF>
  </metadata>
  <g
     inkscape:label="Layer 1"
     inkscape:groupmode="layer"
     id="layer1">
    <path
       style="fill:url(#radialGradient3682);fill-opacity:1;stroke:#000000;stroke-width:1;stroke-miterlimit:4;stroke-dasharray:none;stroke-opacity:1"
       d="M 24.075314,988.75833 C 23.812416,988.75833 23.583635,988.93495 23.521186,989.19206 L 21.208287,998.63633 C 19.273952,999.15795 17.450142,999.93227 15.763345,1000.9253 L 7.5236531,995.52849 C 7.4668001,995.49115 7.4152041,995.46657 7.3550064,995.45616 C 7.1521011,995.38813 6.9341944,995.42011 6.7767816,995.57656 L 2.3678246,1000.0096 L 2.3678246,1000.0338 C 2.2292021,1000.1812 2.1747625,1000.3764 2.2232681,1000.5638 C 2.2363294,1000.6143 2.2430607,1000.6616 2.2714561,1000.7084 C 2.2767549,1000.7184 2.2896606,1000.7228 2.2955463,1000.7325 L 5.2830387,1005.6714 L 7.4754726,1009.2854 C 6.5557137,1010.8316 5.8088347,1012.4901 5.2830387,1014.2484 L -4.233561,1016.224 C -4.4983916,1016.2788 -4.6913271,1016.5309 -4.6913271,1016.8023 L -4.6913271,1023.0663 C -4.6913271,1023.3311 -4.4899101,1023.5581 -4.233561,1023.6205 L 4.9939268,1025.8612 C 5.4873411,1027.8968 6.2496453,1029.8449 7.258639,1031.6193 L 1.910065,1039.7626 C 1.7608868,1039.99 1.7899872,1040.2935 1.9823432,1040.4853 L 6.4153905,1044.9185 C 6.602159,1045.1046 6.8885753,1045.1278 7.1140814,1044.9908 L 15.498329,1039.9072 C 17.142789,1040.8566 18.923161,1041.6172 20.798715,1042.1237 L 22.750218,1051.5198 C 22.804954,1051.7854 23.033163,1051.9776 23.304352,1051.9776 L 29.568445,1051.9776 C 29.831342,1051.9776 30.060129,1051.8011 30.122572,1051.5439 L 32.435471,1042.0996 C 34.369812,1041.578 36.193551,1040.8039 37.880411,1039.8108 L 46.120104,1045.2075 L 46.144195,1045.2317 C 46.19172,1045.2581 46.238933,1045.2712 46.288751,1045.2799 C 46.491663,1045.3478 46.709561,1045.3158 46.866975,1045.1594 L 51.275932,1040.7264 C 51.280541,1040.7217 51.271495,1040.7069 51.275932,1040.7023 C 51.418512,1040.5507 51.476468,1040.3638 51.42049,1040.1722 C 51.408755,1040.1213 51.397734,1040.0754 51.372301,1040.0277 L 51.348213,1040.0035 L 48.360716,1035.0645 L 46.168293,1031.4507 C 47.088043,1029.9045 47.83493,1028.246 48.360716,1026.4875 L 57.877321,1024.5119 C 58.142153,1024.4572 58.335078,1024.2051 58.335078,1023.9337 L 58.335078,1017.6696 C 58.335078,1017.4047 58.133665,1017.1779 57.877321,1017.1154 L 48.649833,1014.8749 C 48.156423,1012.8393 47.394112,1010.8911 46.385127,1009.1167 L 51.733694,1000.9734 C 51.882871,1000.746 51.853771,1000.4426 51.661415,1000.2505 L 47.228366,995.81757 C 47.0416,995.63129 46.755188,995.60811 46.529682,995.74514 L 38.145435,1000.8288 C 36.500965,999.87937 34.720596,999.11878 32.845041,998.6123 L 30.89354,989.21609 C 30.838803,988.95051 30.610594,988.75833 30.339405,988.75833 L 24.075314,988.75833 z"
       id="path3437"
       sodipodi:nodetypes="cccccscccssccccccccccccccccccccccccsccsscccccccccccccccccccc" />
    <g
       id="g3627"
       transform="matrix(0.4359893,0,0,0.4359893,96.277885,482.81447)">
      <path
         transform="matrix(-3.1465188e-2,-0.9995048,0.9995048,-3.1465188e-2,-1431.3101,1098.7111)"
         d="M -133.61467,1252.1713 A 24.516453,24.516453 0 1 1 -182.64757,1252.1713 A 24.516453,24.516453 0 1 1 -133.61467,1252.1713 z"
         sodipodi:ry="24.516453"
         sodipodi:rx="24.516453"
         sodipodi:cy="1252.1713"
         sodipodi:cx="-158.13112"
         id="path3609"
         style="fill:url(#linearGradient3690);fill-opacity:1;stroke:#000000;stroke-width:2.29363441;stroke-miterlimit:4;stroke-dasharray:none;stroke-opacity:1"
         sodipodi:type="arc" />
      <path
         transform="matrix(-3.1465188e-2,-0.9995048,0.9995048,-3.1465188e-2,-1395.4377,1104.2951)"
         d="M -133.61467,1252.1713 A 24.516453,24.516453 0 1 1 -182.64757,1252.1713 A 24.516453,24.516453 0 1 1 -133.61467,1252.1713 z"
         sodipodi:ry="24.516453"
         sodipodi:rx="24.516453"
         sodipodi:cy="1252.1713"
         sodipodi:cx="-158.13112"
         id="path3613"
         style="fill:url(#linearGradient3692);fill-opacity:1;stroke:#000000;stroke-width:2.29363441;stroke-miterlimit:4;stroke-dasharray:none;stroke-opacity:1"
         sodipodi:type="arc" />
      <path
         transform="matrix(-3.1465188e-2,-0.9995048,0.9995048,-3.1465188e-2,-1418.9484,1135.9698)"
         d="M -133.61467,1252.1713 A 24.516453,24.516453 0 1 1 -182.64757,1252.1713 A 24.516453,24.516453 0 1 1 -133.61467,1252.1713 z"
         sodipodi:ry="24.516453"
         sodipodi:rx="24.516453"
         sodipodi:cy="1252.1713"
         sodipodi:cx="-158.13112"
         id="path3597"
         style="fill:url(#linearGradient3694);fill-opacity:1;stroke:#000000;stroke-width:2.29363441;stroke-miterlimit:4;stroke-dasharray:none;stroke-opacity:1"
         sodipodi:type="arc" />
    </g>
  </g>
</svg>
